ffmpeg started on 2016-11-26 at 08:04:25
Report written to "Output/NVENCh264/results/ffmpeg/crowd_run_2160p50ll1000k.log"
Command line:
Tools/ffmpeg/ffmpeg -benchmark -y -i Input/y4m/crowd_run_2160p50.y4m -c:v h264_nvenc -preset ll -b:v 1000k -an Output/NVENCh264/encoded/crowd_run_2160p50ll1000k.mkv
ffmpeg version N-82227-gdb23fde Copyright (c) 2000-2016 the FFmpeg developers
  built with gcc 5.4.0 (Ubuntu 5.4.0-6ubuntu1~16.04.2) 20160609
  configuration: --prefix=/home/jaroslav/ffmpeg_build --pkg-config-flags=--static --extra-cflags=-I/home/jaroslav/ffmpeg_build/include --extra-ldflags=-L/home/jaroslav/ffmpeg_build/lib --bindir=/home/jaroslav/bin --enable-gpl --enable-libass --enable-libfdk-aac --enable-libfreetype --enable-libmp3lame --enable-libopus --enable-libtheora --enable-libvorbis --enable-libvpx --enable-libx264 --enable-libx265 --enable-nvenc --enable-libmfx --enable-libxvid --enable-libgsm --enable-libopencore-amrnb --enable-version3 --enable-nonfree
  libavutil      55. 35.100 / 55. 35.100
  libavcodec     57. 66.101 / 57. 66.101
  libavformat    57. 57.100 / 57. 57.100
  libavdevice    57.  2.100 / 57.  2.100
  libavfilter     6. 66.100 /  6. 66.100
  libswscale      4.  3.100 /  4.  3.100
  libswresample   2.  4.100 /  2.  4.100
  libpostproc    54.  2.100 / 54.  2.100
Input #0, yuv4mpegpipe, from 'Input/y4m/crowd_run_2160p50.y4m':
  Duration: 00:00:10.00, start: 0.000000, bitrate: 4976642 kb/s
    Stream #0:0: Video: rawvideo (I420 / 0x30323449), yuv420p(progressive), 3840x2160, SAR 1:1 DAR 16:9, 50 fps, 50 tbr, 50 tbn, 50 tbc
[h264_nvenc @ 0x387b1c0] The variable bitrate rate-control requires the 'qmin' and/or 'qmax' option set.
Output #0, matroska, to 'Output/NVENCh264/encoded/crowd_run_2160p50ll1000k.mkv':
  Metadata:
    encoder         : Lavf57.57.100
    Stream #0:0: Video: h264 (h264_nvenc) (Main) (H264 / 0x34363248), yuv420p, 3840x2160 [SAR 1:1 DAR 16:9], q=-1--1, 1000 kb/s, 50 fps, 1k tbn, 50 tbc
    Metadata:
      encoder         : Lavc57.66.101 h264_nvenc
    Side data:
      cpb: bitrate max/min/avg: 0/0/1000000 buffer size: 2000000 vbv_delay: -1
Stream mapping:
  Stream #0:0 -> #0:0 (rawvideo (native) -> h264 (h264_nvenc))
Press [q] to stop, [?] for help
frame=   15 fps=0.0 q=0.0 size=       0kB time=00:00:00.00 bitrate=N/A speed=   0x    frame=   31 fps= 30 q=49.0 size=       1kB time=00:00:00.00 bitrate=5960.0kbits/s speed=0.000973x    frame=   48 fps= 31 q=49.0 size=       1kB time=00:00:00.34 bitrate=  17.5kbits/s speed=0.223x    frame=   66 fps= 32 q=49.0 size=       1kB time=00:00:00.70 bitrate=   8.5kbits/s speed=0.342x    frame=   84 fps= 33 q=49.0 size=       1kB time=00:00:01.06 bitrate=   5.6kbits/s speed=0.413x    frame=  102 fps= 33 q=49.0 size=       1kB time=00:00:01.42 bitrate=   4.2kbits/s speed=0.461x    frame=  120 fps= 33 q=49.0 size=       1kB time=00:00:01.78 bitrate=   3.3kbits/s speed=0.494x    frame=  135 fps= 17 q=49.0 size=       1kB time=00:00:02.08 bitrate=   2.9kbits/s speed=0.268x    frame=  152 fps= 18 q=49.0 size=       1kB time=00:00:02.42 bitrate=   2.5kbits/s speed=0.292x    frame=  169 fps= 19 q=49.0 size=       1kB time=00:00:02.76 bitrate=   2.2kbits/s speed=0.315x    frame=  186 fps= 20 q=49.0 size=       1kB time=00:00:03.10 bitrate=   1.9kbits/s speed=0.334x    frame=  203 fps= 21 q=49.0 size=       1kB time=00:00:03.44 bitrate=   1.7kbits/s speed=0.351x    frame=  220 fps= 21 q=49.0 size=       1kB time=00:00:03.78 bitrate=   1.6kbits/s speed=0.367x    frame=  237 fps= 22 q=49.0 size=       1kB time=00:00:04.12 bitrate=   1.4kbits/s speed=0.381x    frame=  255 fps= 23 q=49.0 size=       1kB time=00:00:04.48 bitrate=   1.3kbits/s speed=0.396x    frame=  273 fps= 23 q=49.0 size=       1kB time=00:00:04.84 bitrate=   1.2kbits/s speed=0.409x    frame=  290 fps= 23 q=49.0 size=    3013kB time=00:00:05.18 bitrate=4763.3kbits/s speed=0.42x    frame=  308 fps= 24 q=49.0 size=    3013kB time=00:00:05.54 bitrate=4453.8kbits/s speed=0.431x    frame=  326 fps= 24 q=49.0 size=    3013kB time=00:00:05.90 bitrate=4182.1kbits/s speed=0.441x    frame=  344 fps= 25 q=49.0 size=    3013kB time=00:00:06.26 bitrate=3941.6kbits/s speed=0.45x    frame=  362 fps= 25 q=49.0 size=    3013kB time=00:00:06.62 bitrate=3727.3kbits/s speed=0.459x    frame=  380 fps= 25 q=49.0 size=    3013kB time=00:00:06.98 bitrate=3535.1kbits/s speed=0.467x    frame=  398 fps= 26 q=49.0 size=    3013kB time=00:00:07.34 bitrate=3361.7kbits/s speed=0.475x    frame=  413 fps= 26 q=49.0 size=    3013kB time=00:00:07.64 bitrate=3229.8kbits/s speed=0.474x    frame=  428 fps= 26 q=49.0 size=    3013kB time=00:00:07.94 bitrate=3107.7kbits/s speed=0.477x    frame=  446 fps= 26 q=49.0 size=    3013kB time=00:00:08.30 bitrate=2973.0kbits/s speed=0.483x    frame=  464 fps= 26 q=49.0 size=    3013kB time=00:00:08.66 bitrate=2849.4kbits/s speed=0.49x    frame=  482 fps= 26 q=49.0 size=    3013kB time=00:00:09.02 bitrate=2735.7kbits/s speed=0.496x    frame=  500 fps= 27 q=49.0 size=    3013kB time=00:00:09.38 bitrate=2630.7kbits/s speed=0.502x    frame=  500 fps= 27 q=49.0 Lsize=    6250kB time=00:00:09.98 bitrate=5129.8kbits/s speed=0.532x    
video:6246kB audio:0kB subtitle:0kB other streams:0kB global headers:0kB muxing overhead: 0.067952%
bench: utime=1.084s
bench: maxrss=1396648kB
